<svg width="19" height="19" viewBox="0 0 19 19" fill="none" xmlns="http://www.w3.org/2000/svg">
<path fill-rule="evenodd" clip-rule="evenodd" d="M14.9178 13.1386C15.4318 13.1379 15.9297 12.9589 16.3265 12.6321C16.7233 12.3053 16.9945 11.851 17.0938 11.3466L18.2088 5.77362C18.2734 5.45064 18.2656 5.11733 18.1859 4.79773C18.1063 4.47813 17.9568 4.18017 17.7483 3.92523C17.5397 3.6703 17.2773 3.46474 16.9798 3.32336C16.6823 3.18199 16.3572 3.10831 16.0278 3.1076H4.92778V1.99261C4.92752 1.69776 4.81049 1.41501 4.60228 1.20624C4.39407 0.997465 4.11164 0.879659 3.81679 0.878601H1.6018C1.31199 0.887283 1.03696 1.00849 0.835042 1.21655C0.63312 1.42461 0.520192 1.70317 0.520192 1.9931C0.520192 2.28304 0.63312 2.56159 0.835042 2.76965C1.03696 2.97772 1.31199 3.09892 1.6018 3.1076H2.71679V14.2526C2.27551 14.2506 1.84357 14.3797 1.4757 14.6234C1.10783 14.8671 0.820592 15.2145 0.650349 15.6216C0.480107 16.0288 0.434525 16.4772 0.519399 16.9103C0.604272 17.3433 0.815766 17.7415 1.1271 18.0542C1.43842 18.3669 1.83558 18.5802 2.26824 18.667C2.70089 18.7538 3.14957 18.7103 3.55745 18.5419C3.96533 18.3735 4.31407 18.0878 4.55944 17.721C4.80481 17.3542 4.93578 16.9229 4.93578 16.4816H12.7018C12.7036 16.9203 12.8353 17.3486 13.0803 17.7125C13.3253 18.0764 13.6726 18.3595 14.0785 18.5262C14.4843 18.6928 14.9303 18.7355 15.3604 18.6489C15.7904 18.5622 16.1851 18.35 16.4947 18.0392C16.8043 17.7284 17.0148 17.3328 17.0998 16.9024C17.1847 16.472 17.1402 16.0261 16.9719 15.621C16.8036 15.2158 16.5191 14.8696 16.1542 14.6261C15.7893 14.3826 15.3605 14.2526 14.9218 14.2526H4.9348V13.1386H14.9178ZM16.0328 5.33862L14.9178 10.9116H4.93078V5.33862H16.0308H16.0328Z" fill="#33A0FF"/>
</svg>
