<svg width="8" height="16" viewBox="0 0 8 16" fill="none" xmlns="http://www.w3.org/2000/svg">
<path d="M0.284599 8.67812H1.9426V15.5061C1.9426 15.5708 1.96831 15.6329 2.01407 15.6787C2.05983 15.7244 2.12189 15.7501 2.1866 15.7501H4.9986C5.06331 15.7501 5.12537 15.7244 5.17113 15.6787C5.21689 15.6329 5.2426 15.5708 5.2426 15.5061V8.71012H7.1496C7.20939 8.71002 7.26708 8.68797 7.31169 8.64815C7.3563 8.60833 7.38474 8.55352 7.3916 8.49412L7.68159 5.98012C7.68554 5.94597 7.68223 5.91138 7.67188 5.8786C7.66152 5.84583 7.64435 5.81561 7.62151 5.78993C7.59866 5.76425 7.57064 5.74369 7.53929 5.72959C7.50794 5.71549 7.47396 5.70817 7.43959 5.70812H5.23959V4.13312C5.23959 3.65812 5.4956 3.41712 5.9996 3.41712H7.43559C7.50031 3.41712 7.56237 3.39141 7.60812 3.34565C7.65388 3.29989 7.6796 3.23783 7.6796 3.17312V0.866117C7.68013 0.801746 7.65521 0.739771 7.61026 0.693694C7.56531 0.647616 7.50396 0.62117 7.43959 0.620117H5.4586H5.3676C4.45538 0.623336 3.5749 0.955294 2.8876 1.55512C2.56329 1.83854 2.31445 2.19809 2.16347 2.60146C2.01249 3.00484 1.96408 3.4394 2.0226 3.86612V5.70912H0.281593C0.216881 5.70912 0.154821 5.73482 0.109062 5.78058C0.0633033 5.82634 0.0375977 5.8884 0.0375977 5.95312V8.43412C0.0375952 8.46641 0.0440006 8.49839 0.0564499 8.52819C0.0688992 8.55799 0.0871465 8.58502 0.110123 8.60772C0.133099 8.63042 0.160349 8.64833 0.1903 8.66041C0.220251 8.6725 0.252305 8.67851 0.284599 8.67812Z" fill="#385C8E"/>
</svg>
