<svg width="18" height="16" viewBox="0 0 18 16" fill="none" xmlns="http://www.w3.org/2000/svg">
<path fill-rule="evenodd" clip-rule="evenodd" d="M12.2997 2.22163C12.9435 2.22229 13.5735 2.40877 14.1139 2.75874C14.6543 3.1087 15.0822 3.60724 15.3462 4.19447C15.6102 4.78169 15.699 5.43267 15.6021 6.06916C15.5052 6.70566 15.2265 7.3006 14.7997 7.7826C14.1867 8.4736 8.95971 13.3666 8.95971 13.3666C8.95971 13.3666 3.72169 8.47361 3.10869 7.77162C2.5675 7.16415 2.26978 6.37821 2.27269 5.56464C2.28786 4.68791 2.64677 3.85215 3.27215 3.2375C3.89752 2.62284 4.73933 2.27845 5.6162 2.27845C6.49307 2.27845 7.33482 2.62284 7.96019 3.2375C8.58557 3.85215 8.94454 4.68791 8.95971 5.56464C8.95971 5.1255 9.04617 4.69063 9.21422 4.28492C9.38227 3.87921 9.62862 3.5106 9.93914 3.20008C10.2497 2.88956 10.6183 2.64322 11.024 2.47517C11.4297 2.30712 11.8646 2.22065 12.3037 2.22065L12.2997 2.22163ZM12.3037 -0.00835337C11.0974 -0.0104584 9.92335 0.381001 8.95971 1.10664C7.85575 0.287253 6.48784 -0.0951718 5.11901 0.0329064C3.75017 0.160985 2.47697 0.790527 1.54418 1.80048C0.611386 2.81044 0.0848327 4.12954 0.0657244 5.50422C0.0466161 6.8789 0.536303 8.21213 1.44066 9.24763C2.06666 9.96563 6.18966 13.8256 7.44066 14.9916C7.85358 15.3778 8.39783 15.5926 8.96319 15.5926C9.52854 15.5926 10.0727 15.3778 10.4856 14.9916C11.7296 13.8266 15.8357 9.97665 16.4697 9.25965C17.181 8.45612 17.6452 7.46429 17.8065 6.40333C17.9678 5.34237 17.8194 4.25739 17.379 3.27876C16.9386 2.30012 16.2251 1.46941 15.324 0.886483C14.423 0.303555 13.3728 -0.00682776 12.2997 -0.00737681L12.3037 -0.00835337Z" fill="#33A0FF"/>
</svg>
