<svg width="40" height="26" viewBox="0 0 40 26" fill="none" xmlns="http://www.w3.org/2000/svg">
<path d="M2.52867 0.188232H37.5016C37.9523 0.197422 38.381 0.385026 38.6932 0.710205C39.0055 1.03538 39.1757 1.4714 39.1666 1.92212V23.5964C39.1757 24.0472 39.0055 24.4827 38.6932 24.8079C38.381 25.133 37.9523 25.3211 37.5016 25.3303H2.52867C2.07795 25.3211 1.64926 25.133 1.33702 24.8079C1.02478 24.4827 0.854519 24.0472 0.863629 23.5964V1.92212C0.854519 1.4714 1.02478 1.03538 1.33702 0.710205C1.64926 0.385026 2.07795 0.197422 2.52867 0.188232Z" fill="#5870BE"/>
<path d="M17.6187 12.755C17.619 10.9792 18.146 9.2435 19.1328 7.7672C20.1196 6.2909 21.522 5.14037 23.1627 4.46105C24.8034 3.78173 26.6086 3.60419 28.3502 3.95079C30.0918 4.2974 31.6916 5.1526 32.9471 6.40831C34.2027 7.66403 35.0578 9.26385 35.4042 11.0055C35.7506 12.7471 35.5727 14.5524 34.8932 16.193C34.2137 17.8336 33.0631 19.2356 31.5867 20.2223C30.1103 21.2089 28.3744 21.7358 26.5986 21.736C25.4193 21.736 24.2514 21.5037 23.1619 21.0524C22.0723 20.601 21.0823 19.9396 20.2484 19.1056C19.4145 18.2716 18.7531 17.2816 18.3019 16.192C17.8507 15.1024 17.6185 13.9343 17.6187 12.755Z" fill="#FFAF38"/>
<path d="M12.8396 21.7341C11.3085 21.7339 9.80289 21.3423 8.46579 20.5964C7.12869 19.8505 6.00451 18.7751 5.20004 17.4724C4.39558 16.1697 3.93755 14.6831 3.86948 13.1535C3.8014 11.6239 4.12557 10.1021 4.81113 8.73311C5.49669 7.36409 6.52091 6.19347 7.78647 5.33174C9.05202 4.47001 10.5168 3.94595 12.0418 3.80977C13.5669 3.67358 15.1014 3.92956 16.4996 4.55342C17.8978 5.17728 19.1133 6.14833 20.0306 7.37422H18.8307V7.97432H20.4436C20.5646 8.16532 20.6786 8.36318 20.7846 8.56318H18.2306V9.16328H21.0736C21.1616 9.36328 21.2406 9.56338 21.3106 9.76338H17.6306V10.363H21.4986C21.9848 12.137 21.9178 14.0173 21.3066 15.7521H17.6306V16.3522H21.0695C20.9795 16.5592 20.8826 16.7521 20.7846 16.9431H18.2306V17.5432H20.4366C20.3036 17.7532 20.1647 17.9543 20.0237 18.1433H18.8307V18.7434H19.5306C18.6878 19.6837 17.6565 20.436 16.5036 20.9514C15.3508 21.4667 14.1023 21.7332 12.8396 21.7341Z" fill="#E63737"/>
<path d="M2.9885 14.407L3.5352 10.1471L4.38371 10.256L5.00495 13.4016C5.06189 13.6945 5.10272 13.9134 5.12744 14.0583C5.19576 13.9095 5.30052 13.6916 5.44173 13.4045L6.84206 10.5714L7.60049 10.6688L7.05379 14.9288L6.5104 14.859L6.96797 11.2935L5.2725 14.7002L4.76398 14.6349L3.9973 10.8503L3.53189 14.4768L2.9885 14.407ZM9.9591 14.9147C9.74425 15.0545 9.54238 15.1467 9.35352 15.1914C9.16659 15.2363 8.97046 15.2456 8.76511 15.2193C8.42609 15.1758 8.1761 15.06 8.01513 14.872C7.85441 14.682 7.79058 14.4582 7.82365 14.2005C7.84304 14.0494 7.8946 13.9162 7.97831 13.8009C8.06421 13.684 8.16722 13.5948 8.28734 13.5334C8.40939 13.4723 8.54265 13.4313 8.6871 13.4104C8.79326 13.3965 8.95159 13.3902 9.16211 13.3917C9.59089 13.3955 9.90952 13.3753 10.118 13.3312C10.1291 13.2598 10.136 13.2144 10.1384 13.195C10.1658 12.9819 10.1357 12.8254 10.048 12.7256C9.92954 12.5902 9.73856 12.5057 9.47509 12.4719C9.22906 12.4403 9.04137 12.4605 8.91201 12.5325C8.78484 12.6028 8.67911 12.7439 8.59484 12.9555L8.09236 12.8202C8.16695 12.6072 8.26609 12.4408 8.38979 12.3208C8.51374 12.1988 8.68106 12.115 8.89173 12.0691C9.10265 12.0214 9.34081 12.0145 9.60621 12.0486C9.86967 12.0824 10.0798 12.1409 10.2365 12.224C10.3932 12.3071 10.5042 12.4011 10.5695 12.506C10.6351 12.6089 10.6741 12.734 10.6867 12.8814C10.6927 12.9727 10.6808 13.1346 10.651 13.3671L10.5615 14.0645C10.4991 14.5508 10.4702 14.8601 10.4749 14.9927C10.4817 15.1235 10.5105 15.2522 10.5612 15.3789L10.0149 15.3088C9.97454 15.1933 9.95595 15.062 9.9591 14.9147ZM10.0654 13.7409C9.86563 13.7941 9.57241 13.8234 9.18575 13.8289C8.96674 13.8323 8.81019 13.8476 8.7161 13.8749C8.62202 13.9023 8.54591 13.9506 8.48778 14.0199C8.42991 14.0873 8.39512 14.1665 8.38344 14.2576C8.36554 14.3971 8.40293 14.52 8.49561 14.6264C8.59022 14.7331 8.73923 14.7995 8.94264 14.8256C9.14411 14.8514 9.3289 14.8308 9.49701 14.7638C9.66536 14.6948 9.79616 14.5885 9.88942 14.445C9.96076 14.334 10.0112 14.1632 10.0408 13.9327L10.0654 13.7409ZM11.1182 14.514L11.6458 14.499C11.6483 14.7101 11.7083 14.8792 11.8259 15.0066C11.9454 15.1341 12.1243 15.2132 12.3625 15.2438C12.6028 15.2746 12.7872 15.2491 12.9159 15.1671C13.0448 15.0832 13.1177 14.9754 13.1346 14.8437C13.1498 14.7255 13.1104 14.6259 13.0164 14.545C12.9507 14.4893 12.78 14.4073 12.5045 14.2991C12.1333 14.153 11.8776 14.0355 11.7374 13.9466C11.5994 13.8561 11.4996 13.7438 11.438 13.6099C11.3786 13.4743 11.3586 13.3309 11.378 13.1798C11.3956 13.0423 11.4429 12.9193 11.5198 12.8111C11.5989 12.7011 11.6977 12.6143 11.8161 12.5508C11.9052 12.5012 12.0221 12.465 12.1668 12.4422C12.3137 12.4177 12.4675 12.4158 12.6283 12.4364C12.8705 12.4675 13.0781 12.5296 13.2513 12.6227C13.4263 12.7161 13.5498 12.8284 13.6215 12.9597C13.6935 13.089 13.7332 13.2556 13.7405 13.4594L13.2202 13.4635C13.2173 13.3016 13.1654 13.169 13.0645 13.0654C12.9655 12.9621 12.8143 12.8974 12.6109 12.8713C12.3707 12.8405 12.1941 12.8582 12.0813 12.9245C11.9684 12.9907 11.9051 13.0771 11.8914 13.1837C11.8827 13.2515 11.8962 13.3152 11.9319 13.3749C11.9673 13.4366 12.0282 13.4917 12.1145 13.5402C12.1643 13.5662 12.3126 13.6306 12.5594 13.7331C12.9167 13.8794 13.1639 13.9938 13.301 14.0764C13.4403 14.1573 13.5439 14.2631 13.6117 14.3939C13.6796 14.5247 13.7021 14.6792 13.6793 14.8575C13.6569 15.0318 13.5844 15.1899 13.4619 15.3317C13.3415 15.4718 13.1799 15.5722 12.9772 15.6328C12.7747 15.6915 12.5524 15.7053 12.3103 15.6742C11.9092 15.6228 11.6139 15.5002 11.4241 15.3065C11.2362 15.113 11.1343 14.8489 11.1182 14.514ZM15.3868 15.5226L15.4031 15.9943C15.2519 16.0064 15.1181 16.005 15.0019 15.9901C14.8121 15.9658 14.6687 15.9168 14.5718 15.8434C14.4749 15.7699 14.4113 15.682 14.3811 15.5796C14.3512 15.4754 14.3564 15.2663 14.3966 14.9525L14.6245 13.177L14.2409 13.1278L14.2931 12.721L14.6767 12.7702L14.7748 12.006L15.3352 11.7589L15.1968 12.8369L15.7228 12.9044L15.6706 13.3113L15.1446 13.2438L14.9131 15.0483C14.8939 15.1975 14.8903 15.2945 14.9023 15.3393C14.9162 15.3844 14.9419 15.4222 14.9793 15.4526C15.0187 15.4833 15.0771 15.5036 15.1546 15.5135C15.2127 15.521 15.2901 15.524 15.3868 15.5226ZM18.0812 15.3338L18.6131 15.47C18.4873 15.7748 18.298 15.9996 18.0451 16.1444C17.7922 16.2891 17.4866 16.3385 17.1282 16.2925C16.6768 16.2346 16.3362 16.0501 16.1063 15.739C15.8787 15.4262 15.797 15.019 15.8614 14.5172C15.928 13.9981 16.1134 13.6123 16.4176 13.3599C16.7217 13.1075 17.0869 13.0086 17.513 13.0633C17.9257 13.1163 18.2447 13.3 18.4702 13.6144C18.6957 13.9289 18.7757 14.3409 18.7103 14.8504C18.7064 14.8814 18.6994 14.9277 18.6895 14.9895L16.3881 14.6941C16.364 15.0356 16.4265 15.3075 16.5758 15.5098C16.7251 15.7121 16.9286 15.8298 17.1863 15.8628C17.378 15.8874 17.5482 15.8581 17.6967 15.7748C17.8453 15.6914 17.9734 15.5444 18.0812 15.3338ZM16.4724 14.2678L18.1955 14.4889C18.2056 14.2263 18.1647 14.0232 18.0729 13.8795C17.9321 13.6566 17.7291 13.5282 17.4637 13.4941C17.2234 13.4633 17.0107 13.5177 16.8254 13.6574C16.642 13.7973 16.5243 14.0007 16.4724 14.2678ZM19.148 16.4808L19.544 13.3948L20.0148 13.4552L19.9547 13.9231C20.1029 13.7196 20.2319 13.5894 20.3415 13.5326C20.4532 13.4761 20.57 13.4556 20.6921 13.4713C20.8683 13.4939 21.0403 13.5731 21.208 13.7088L20.9656 14.171C20.8474 14.079 20.7244 14.0248 20.5965 14.0084C20.4822 13.9937 20.3751 14.0154 20.2751 14.0735C20.1753 14.1296 20.0983 14.2162 20.0439 14.3333C19.9619 14.5118 19.9067 14.7115 19.8784 14.9323L19.671 16.548L19.148 16.4808ZM24.4336 15.641L24.9791 15.8557C24.8015 16.3035 24.543 16.6297 24.2037 16.8343C23.8665 17.0372 23.4761 17.1101 23.0325 17.0532C22.5734 16.9943 22.2114 16.8533 21.9466 16.6303C21.684 16.4056 21.4999 16.1063 21.3943 15.7324C21.2907 15.3587 21.2649 14.9685 21.3171 14.5617C21.3741 14.118 21.5079 13.7424 21.7187 13.4347C21.9317 13.1253 22.2051 12.9054 22.5389 12.7749C22.8748 12.6428 23.2307 12.6008 23.6066 12.649C24.0327 12.7037 24.3772 12.8582 24.64 13.1125C24.9027 13.3667 25.066 13.6978 25.1298 14.1058L24.558 14.1653C24.499 13.8427 24.3846 13.5986 24.2148 13.433C24.0451 13.2675 23.8178 13.1665 23.533 13.1299C23.2056 13.0879 22.9214 13.1312 22.6805 13.2598C22.4414 13.3886 22.2603 13.58 22.1371 13.8339C22.0142 14.086 21.9347 14.3524 21.8987 14.6333C21.8522 14.9956 21.8638 15.3191 21.9336 15.6037C22.0056 15.8866 22.1444 16.1092 22.3501 16.2715C22.5557 16.4338 22.7883 16.5316 23.0479 16.5649C23.3637 16.6054 23.6427 16.5487 23.885 16.3946C24.1272 16.2406 24.3101 15.9894 24.4336 15.641ZM27.4988 17.1656C27.284 17.3054 27.0821 17.3977 26.8933 17.4423C26.7063 17.4873 26.5102 17.4966 26.3049 17.4702C25.9658 17.4267 25.7158 17.3109 25.5549 17.1229C25.3942 16.9329 25.3303 16.7091 25.3634 16.4515C25.3828 16.3004 25.4343 16.1672 25.5181 16.0519C25.604 15.9349 25.707 15.8457 25.8271 15.7844C25.9491 15.7232 26.0824 15.6822 26.2268 15.6614C26.333 15.6474 26.4913 15.6412 26.7019 15.6426C27.1306 15.6464 27.4493 15.6263 27.6578 15.5821C27.6689 15.5107 27.6757 15.4653 27.6782 15.4459C27.7055 15.2328 27.6754 15.0764 27.5878 14.9765C27.4693 14.8412 27.2783 14.7566 27.0148 14.7228C26.7688 14.6912 26.5811 14.7114 26.4518 14.7835C26.3246 14.8538 26.2189 14.9948 26.1346 15.2065L25.6321 15.0711C25.7067 14.8582 25.8058 14.6917 25.9295 14.5717C26.0535 14.4498 26.2208 14.3659 26.4315 14.3201C26.6424 14.2723 26.8806 14.2655 27.146 14.2995C27.4094 14.3333 27.6195 14.3918 27.7762 14.4749C27.9329 14.5581 28.0439 14.652 28.1092 14.7569C28.1748 14.8598 28.2139 14.985 28.2265 15.1323C28.2325 15.2237 28.2206 15.3856 28.1907 15.618L28.1012 16.3154C28.0388 16.8017 28.0099 17.1111 28.0146 17.2436C28.0214 17.3745 28.0502 17.5032 28.1009 17.6298L27.5546 17.5597C27.5143 17.4443 27.4957 17.3129 27.4988 17.1656ZM27.6052 15.9919C27.4054 16.045 27.1122 16.0743 26.7255 16.0798C26.5065 16.0832 26.3499 16.0986 26.2558 16.1259C26.1618 16.1532 26.0857 16.2015 26.0275 16.2709C25.9697 16.3383 25.9349 16.4175 25.9232 16.5085C25.9053 16.648 25.9427 16.771 26.0354 16.8774C26.13 16.984 26.279 17.0504 26.4824 17.0765C26.6839 17.1024 26.8687 17.0818 27.0368 17.0147C27.2051 16.9458 27.3359 16.8395 27.4292 16.6959C27.5005 16.5849 27.551 16.4142 27.5806 16.1836L27.6052 15.9919ZM28.7431 17.7122L29.1391 14.6262L29.6099 14.6866L29.5499 15.1545C29.6981 14.951 29.827 14.8208 29.9367 14.764C30.0483 14.7074 30.1651 14.687 30.2872 14.7027C30.4635 14.7253 30.6355 14.8045 30.8031 14.9402L30.5607 15.4023C30.4425 15.3104 30.3195 15.2562 30.1917 15.2398C30.0774 15.2251 29.9702 15.2468 29.8702 15.3049C29.7705 15.361 29.6934 15.4476 29.639 15.5647C29.557 15.7432 29.5018 15.9429 29.4735 16.1637L29.2662 17.7794L28.7431 17.7122ZM32.7328 18.2242L32.7828 17.8349C32.5479 18.1158 32.2406 18.232 31.8609 18.1832C31.6148 18.1517 31.3969 18.0548 31.207 17.8926C31.019 17.7306 30.8835 17.5212 30.8002 17.2644C30.7192 17.0059 30.699 16.7187 30.7395 16.403C30.779 16.0949 30.8661 15.8226 31.0009 15.5858C31.1359 15.3472 31.3146 15.1742 31.5371 15.0669C31.7596 14.9596 31.9978 14.9222 32.2515 14.9547C32.4375 14.9786 32.5981 15.0396 32.7332 15.1377C32.8685 15.2338 32.9736 15.3507 33.0485 15.4883L33.2447 13.9598L33.7648 14.0265L33.2181 18.2865L32.7328 18.2242ZM31.2771 16.472C31.2263 16.8671 31.2717 17.1733 31.4132 17.3903C31.5547 17.6073 31.7388 17.7304 31.9654 17.7595C32.194 17.7888 32.3997 17.7207 32.5824 17.5551C32.7673 17.3878 32.8844 17.1124 32.9336 16.7288C32.9878 16.3065 32.9462 15.9861 32.8089 15.7676C32.6715 15.5492 32.4837 15.4246 32.2454 15.3941C32.0129 15.3642 31.806 15.4342 31.6248 15.6039C31.4454 15.7738 31.3295 16.0632 31.2771 16.472Z" fill="white"/>
</svg>
