<svg width="25" height="24" viewBox="0 0 25 24" fill="none" xmlns="http://www.w3.org/2000/svg">
<path d="M9.70752 21C10.0182 21 10.27 20.7482 10.27 20.4375C10.27 20.1268 10.0182 19.875 9.70752 19.875C9.39686 19.875 9.14502 20.1268 9.14502 20.4375C9.14502 20.7482 9.39686 21 9.70752 21Z" fill="#22262A" stroke="#22262A" stroke-width="2" stroke-miterlimit="10" stroke-linecap="round" stroke-linejoin="round"/>
<path d="M17.5825 21C17.8932 21 18.145 20.7482 18.145 20.4375C18.145 20.1268 17.8932 19.875 17.5825 19.875C17.2719 19.875 17.02 20.1268 17.02 20.4375C17.02 20.7482 17.2719 21 17.5825 21Z" fill="#22262A" stroke="#22262A" stroke-width="2" stroke-miterlimit="10" stroke-linecap="round" stroke-linejoin="round"/>
<path d="M3.52002 3H5.77002L8.02002 16.5H19.27L21.52 6.375H6.89502" stroke="#22262A" stroke-width="2" stroke-linecap="round" stroke-linejoin="round"/>
</svg>
