<svg xmlns="http://www.w3.org/2000/svg" width="16" height="16" viewBox="0 0 16 16" fill="none">
  <path fill-rule="evenodd" clip-rule="evenodd" d="M7.25 3C4.90279 3 3 4.90279 3 7.25C3 9.59721 4.90279 11.5 7.25 11.5C9.59721 11.5 11.5 9.59721 11.5 7.25C11.5 4.90279 9.59721 3 7.25 3ZM1 7.25C1 3.79822 3.79822 1 7.25 1C10.7018 1 13.5 3.79822 13.5 7.25C13.5 10.7018 10.7018 13.5 7.25 13.5C3.79822 13.5 1 10.7018 1 7.25Z" fill="#40BFFF"/>
  <path fill-rule="evenodd" clip-rule="evenodd" d="M10.2929 10.2929C10.6834 9.90237 11.3166 9.90237 11.7071 10.2929L14.7071 13.2929C15.0976 13.6834 15.0976 14.3166 14.7071 14.7071C14.3166 15.0976 13.6834 15.0976 13.2929 14.7071L10.2929 11.7071C9.90237 11.3166 9.90237 10.6834 10.2929 10.2929Z" fill="#40BFFF"/>
</svg>