<svg width="22" height="21" viewBox="0 0 22 21" fill="none" xmlns="http://www.w3.org/2000/svg">
<path fill-rule="evenodd" clip-rule="evenodd" d="M21.1847 18.7179L14.8767 12.3808C16.0084 10.7747 16.4955 8.80205 16.2416 6.85372C15.9876 4.90539 15.011 3.12356 13.5053 1.86123C11.9997 0.598893 10.0748 -0.0518366 8.11204 0.037985C6.14928 0.127807 4.29188 0.951575 2.90781 2.34615C1.52374 3.74073 0.713987 5.60433 0.639013 7.56771C0.564039 9.53109 1.22931 11.451 2.503 12.9471C3.77668 14.4432 5.56586 15.4062 7.51606 15.6455C9.46625 15.8847 11.4352 15.3827 13.0327 14.2389L19.3407 20.5769C19.4621 20.7008 19.6069 20.7994 19.7667 20.867C19.9265 20.9345 20.0981 20.9695 20.2716 20.9701C20.4451 20.9707 20.617 20.9368 20.7772 20.8704C20.9375 20.804 21.083 20.7064 21.2052 20.5832C21.3274 20.4601 21.4239 20.3139 21.4891 20.1531C21.5543 19.9923 21.5869 19.8202 21.585 19.6467C21.5831 19.4733 21.5467 19.3019 21.478 19.1426C21.4093 18.9833 21.3096 18.8393 21.1847 18.7188V18.7179ZM8.4957 13.0758C7.45475 13.0816 6.43552 12.7781 5.56721 12.204C4.69889 11.6299 4.02057 10.8109 3.61823 9.85079C3.21589 8.89072 3.10764 7.83278 3.3072 6.81112C3.50675 5.78946 4.00514 4.85007 4.73917 4.11196C5.47321 3.37385 6.40985 2.87026 7.4304 2.66506C8.45094 2.45986 9.50943 2.56229 10.4717 2.95931C11.434 3.35633 12.2567 4.0301 12.8357 4.89522C13.4146 5.76035 13.7237 6.77784 13.7237 7.81881C13.7237 9.20804 13.1738 10.5409 12.1942 11.5259C11.2146 12.5109 9.88491 13.0682 8.4957 13.0758Z" fill="#22262A"/>
</svg>
