<svg width="70" height="79" viewBox="0 0 70 79" fill="none" xmlns="http://www.w3.org/2000/svg">
<path d="M56.1961 16.7681L52.4245 21.6121C57.7706 25.756 61.4548 31.6783 62.8092 38.3054C64.1635 44.9325 63.0984 51.8255 59.8068 57.7346C56.5152 63.6437 51.2152 68.1777 44.8676 70.5146C38.5201 72.8514 31.5453 72.8364 25.2079 70.4721C18.8705 68.1079 13.59 63.5511 10.324 57.6278C7.05796 51.7045 6.02254 44.807 7.40549 38.1858C8.78844 31.5647 12.4982 25.6583 17.8621 21.5375C23.226 17.4168 29.889 15.3545 36.6429 15.7246L31.3362 21.2915L35.2725 25.048L43.6493 16.2476L47.402 12.3063L43.472 8.56488L34.6779 0.18689L30.9226 4.12822L36.6504 9.58447C27.8649 9.1844 19.2599 12.1646 12.6037 17.9125C5.9474 23.6604 1.74554 31.7396 0.861554 40.4896C-0.022431 49.2396 2.47861 57.9959 7.85071 64.9591C13.2228 71.9222 21.0579 76.5632 29.7459 77.9285C31.5386 78.2118 33.3507 78.3543 35.1657 78.3546C42.3308 78.3368 49.3117 76.0829 55.1344 71.9074C60.9572 67.7319 65.3314 61.843 67.6469 55.0623C69.9623 48.2816 70.1035 40.9472 68.0508 34.0824C65.9981 27.2176 61.8538 21.1647 56.1961 16.7681Z" fill="#FF6875"/>
<path d="M38.4624 61.4918V57.959C42.6514 57.4913 46.726 54.8462 46.726 49.8224C46.726 42.9971 40.3796 42.2151 35.7443 41.6443C32.7811 41.2898 30.5119 40.8787 30.5119 39.0834C30.5119 36.5866 34.032 36.3176 35.5407 36.3176C37.786 36.3176 40.1823 37.3736 40.9969 38.7201L41.2333 39.1123L45.8849 36.9575L45.6549 36.4885C44.9645 35.1235 43.9443 33.9525 42.6868 33.0816C41.4293 32.2106 39.9742 31.6674 38.4536 31.5012V28.3896H33.0099V31.4861C27.9346 32.2405 24.9198 35.0516 24.9198 39.0821C24.9198 45.6535 30.8865 46.3199 35.2402 46.8089C39.1199 47.2665 40.9253 48.2245 40.9253 49.8262C40.9253 52.8774 36.6998 53.115 35.4049 53.115C32.5221 53.115 29.7475 51.6768 28.9379 49.7658L28.738 49.2944L23.6865 51.4354L23.8877 51.9069C25.385 55.4132 28.6173 57.6095 33.0162 58.1287V61.4918H38.4624Z" fill="#FF6875"/>
</svg>
