<svg width="101" height="67" viewBox="0 0 101 67" fill="none" xmlns="http://www.w3.org/2000/svg">
<path d="M100.937 34.1817C100.937 34.1628 100.937 34.144 100.937 34.1251C100.929 33.5173 100.681 32.9374 100.247 32.5114C99.8135 32.0853 99.2294 31.8475 98.6215 31.8496H98.013L88.6016 13.6704C88.4058 13.2932 88.1097 12.9774 87.7459 12.7575C87.3821 12.5377 86.9648 12.4225 86.5398 12.4245H70.4816L71.0938 7.56797C71.1941 6.63935 71.0961 5.7 70.8063 4.81207C70.5165 3.92414 70.0415 3.10785 69.4127 2.41716C68.784 1.72647 68.0157 1.17713 67.1588 0.805453C66.3019 0.433781 65.3759 0.248253 64.442 0.261125H14.6015C13.9926 0.26438 13.4065 0.493087 12.9563 0.903106C12.5061 1.31312 12.2238 1.87538 12.1638 2.48134L11.6609 6.48175H40.0611C40.4961 6.47951 40.9272 6.565 41.3284 6.73313C41.7297 6.90126 42.0929 7.14857 42.3964 7.46028C42.6999 7.77199 42.9374 8.14169 43.0947 8.54729C43.2521 8.95288 43.3261 9.38605 43.3122 9.82088C43.2845 10.7127 42.912 11.559 42.2731 12.1818C41.6341 12.8046 40.7785 13.1552 39.8863 13.16H30.4146V13.1738H2.60527C1.97497 13.1771 1.37045 13.4245 0.918698 13.864C0.466948 14.3036 0.203123 14.9011 0.182641 15.5311C0.172487 15.8388 0.22454 16.1454 0.335685 16.4325C0.44683 16.7197 0.614779 16.9814 0.829475 17.2021C1.04417 17.4228 1.3012 17.5979 1.58516 17.7169C1.86912 17.8358 2.17418 17.8963 2.48206 17.8946H39.3055C40.1426 18.0218 40.904 18.4515 41.4457 19.1023C41.9873 19.7531 42.2717 20.5798 42.2448 21.4261C42.2148 22.377 41.8189 23.2796 41.1396 23.9457C40.4604 24.6118 39.5502 24.9901 38.5989 25.0016H13.2173C12.5793 25.0049 11.9675 25.2558 11.5108 25.7014C11.0542 26.147 10.7884 26.7525 10.7695 27.3903C10.759 27.7012 10.8114 28.011 10.9235 28.3011C11.0357 28.5913 11.2052 28.8559 11.4221 29.0789C11.6389 29.302 11.8985 29.4789 12.1854 29.5992C12.4723 29.7195 12.7805 29.7806 13.0916 29.7789H38.1803C39.0254 29.8954 39.7978 30.32 40.3491 30.971C40.9004 31.6221 41.1918 32.4539 41.1674 33.3067C41.1375 34.2621 40.7382 35.1687 40.0536 35.8357C39.3689 36.5028 38.4522 36.8783 37.4964 36.8834H8.71778H6.29893C5.6609 36.8867 5.04909 37.1376 4.59246 37.5832C4.13582 38.0288 3.87005 38.6343 3.85115 39.2721C3.84066 39.583 3.89304 39.8928 4.00517 40.183C4.1173 40.4731 4.28686 40.7377 4.50369 40.9607C4.72052 41.1838 4.98016 41.3608 5.26704 41.481C5.55392 41.6013 5.86213 41.6625 6.17321 41.6608H8.26016L7.44424 50.2022C7.34416 51.1307 7.4423 52.0699 7.73219 52.9577C8.02207 53.8455 8.49709 54.6616 9.12584 55.3522C9.7546 56.0427 10.5228 56.5919 11.3796 56.9635C12.2364 57.3351 13.1623 57.5206 14.0961 57.5078H15.8977C16.3204 59.9279 17.586 62.1204 19.4703 63.6968C21.3547 65.2733 23.7361 66.132 26.1929 66.1209C28.6918 66.1034 31.1118 65.2438 33.0616 63.6808C35.0115 62.1179 36.3773 59.943 36.9382 57.5078H59.4056C61.1991 57.4918 62.9292 56.8431 64.2911 55.676C65.5438 56.8694 67.2128 57.5266 68.9428 57.5078H69.3124C69.7351 59.9279 71.0007 62.1204 72.8851 63.6968C74.7694 65.2733 77.1508 66.132 79.6076 66.1209C82.1065 66.1034 84.5265 65.2438 86.4764 63.6808C88.4262 62.1179 89.792 59.943 90.3529 57.5078H91.8326C93.7399 57.4711 95.5682 56.7395 96.9745 55.4504C98.3807 54.1613 99.2681 52.4034 99.4701 50.5064L100.923 34.4142C100.923 34.3929 100.923 34.3715 100.923 34.3489C100.923 34.3262 100.93 34.2835 100.931 34.2496C100.932 34.2156 100.937 34.2005 100.937 34.1817ZM26.3173 61.3473C25.5407 61.3507 24.7714 61.1976 24.0552 60.8973C23.339 60.5969 22.6907 60.1553 22.1489 59.599C21.607 59.0426 21.1828 58.3828 20.9015 57.6589C20.6202 56.935 20.4876 56.1619 20.5116 55.3856C20.5629 53.7939 21.2287 52.2838 22.3693 51.1723C23.5098 50.0608 25.0366 49.4342 26.6291 49.424C27.4057 49.4206 28.1751 49.5736 28.8913 49.874C29.6074 50.1744 30.2558 50.6159 30.7976 51.1723C31.3394 51.7287 31.7637 52.3885 32.045 53.1124C32.3263 53.8363 32.4589 54.6094 32.4349 55.3856C32.3836 56.9774 31.7178 58.4874 30.5772 59.5989C29.4366 60.7105 27.9099 61.3371 26.3173 61.3473ZM79.7346 61.3473C78.958 61.3507 78.1886 61.1976 77.4724 60.8973C76.7563 60.5969 76.1079 60.1553 75.5661 59.599C75.0243 59.0426 74.6 58.3828 74.3187 57.6589C74.0374 56.935 73.9048 56.1619 73.9288 55.3856C73.9801 53.7939 74.6459 52.2838 75.7865 51.1723C76.9271 50.0608 78.4538 49.4342 80.0464 49.424C80.823 49.4206 81.5923 49.5736 82.3085 49.874C83.0247 50.1744 83.673 50.6159 84.2148 51.1723C84.7567 51.7287 85.1809 52.3885 85.4622 53.1124C85.7435 53.8363 85.8761 54.6094 85.8521 55.3856C85.8008 56.9774 85.135 58.4874 83.9944 59.5989C82.8539 60.7105 81.3271 61.3371 79.7346 61.3473ZM94.7242 50.1972C94.6442 50.8815 94.3209 51.5143 93.8131 51.9801C93.3054 52.4459 92.647 52.7135 91.9583 52.7342H90.3592C89.8313 50.4313 88.5355 48.3766 86.6847 46.9081C84.8339 45.4396 82.5384 44.6447 80.1758 44.6542C77.7709 44.6709 75.4363 45.4676 73.5229 46.9246C71.6096 48.3816 70.2207 50.4203 69.5651 52.7342H69.0735C68.7888 52.7406 68.506 52.687 68.2434 52.5767C67.9809 52.4665 67.7445 52.3021 67.5498 52.0943C67.3591 51.879 67.2158 51.6261 67.1292 51.3519C67.0425 51.0777 67.0145 50.7884 67.0469 50.5027L70.0541 17.1868H76.9599L75.8662 29.3188C75.7659 30.2474 75.8639 31.1868 76.1537 32.0747C76.4435 32.9626 76.9185 33.7789 77.5473 34.4696C78.176 35.1603 78.9443 35.7097 79.8012 36.0813C80.658 36.453 81.5841 36.6385 82.518 36.6257H95.9487L94.7242 50.1972Z" fill="#FF6875"/>
</svg>
