<svg width="69" height="90" viewBox="0 0 69 90" fill="none" xmlns="http://www.w3.org/2000/svg">
<path d="M0.63623 70.46V89.0251H68.3038V70.46C68.3012 68.3903 67.4778 66.406 66.0142 64.9424C64.5507 63.4789 62.5664 62.6555 60.4966 62.6528H8.44345C6.37366 62.6555 4.38941 63.4789 2.92585 64.9424C1.46229 66.406 0.638892 68.3903 0.63623 70.46H0.63623ZM5.84104 70.46C5.84204 69.7701 6.11654 69.1088 6.60437 68.621C7.0922 68.1331 7.75356 67.8587 8.44345 67.8577H11.0459V83.8241H5.84104V70.46ZM16.2519 67.8577H22.9817L34.47 79.346L45.9583 67.8577H52.6844V83.8241H16.2519V67.8577ZM63.099 70.46V83.8203H57.8942V67.8539H60.4966C61.1872 67.8549 61.8491 68.1299 62.337 68.6186C62.825 69.1072 63.099 69.7695 63.099 70.46ZM38.5974 67.8577L34.47 71.985L30.3426 67.8577H38.5974Z" fill="#FF6875"/>
<path d="M53.9416 52.2382H57.898V47.0333H60.5004C62.5702 47.0307 64.5544 46.2073 66.018 44.7437C67.4816 43.2802 68.3049 41.2959 68.3076 39.2261V34.0213C68.3073 25.0475 64.7421 16.4414 58.3965 10.0962C52.0508 3.75106 43.4444 0.186556 34.4707 0.18689C25.4969 0.187223 16.8908 3.75236 10.5456 10.098C4.2004 16.4437 0.635897 25.0501 0.63623 34.0238L0.63623 39.2286C0.638892 41.2984 1.46229 43.2827 2.92585 44.7462C4.38941 46.2098 6.37366 47.0332 8.44345 47.0359H12.386C13.8334 51.1351 16.3934 54.7504 19.7793 57.477C23.1652 60.2035 27.2432 61.9337 31.5568 62.4737C35.8703 63.0137 40.2491 62.3423 44.2026 60.5345C48.1561 58.7267 51.5283 55.854 53.9416 52.2382ZM60.5004 41.8273H57.7471C57.844 40.9632 57.8927 40.0944 57.893 39.2249V34.0201C57.8927 33.1506 57.844 32.2817 57.7471 31.4177H60.4954C61.1853 31.4187 61.8466 31.6932 62.3344 32.181C62.8223 32.6688 63.0968 33.3302 63.0978 34.0201V39.2249C63.0981 39.9156 62.8242 40.5783 62.3362 41.0672C61.8482 41.5561 61.1861 41.8313 60.4954 41.8323L60.5004 41.8273ZM34.47 5.39485C40.7277 5.4029 46.8111 7.45745 51.7923 11.2452C56.7735 15.0329 60.3791 20.3458 62.0593 26.3738C61.545 26.269 61.0215 26.2164 60.4966 26.2166H56.5528C54.9382 21.6499 51.9476 17.696 47.9927 14.8995C44.0378 12.1029 39.3132 10.6012 34.4694 10.6012C29.6257 10.6012 24.901 12.1029 20.9461 14.8995C16.9912 17.696 14.0006 21.6499 12.386 26.2166H8.44345C7.91859 26.2164 7.39505 26.269 6.88075 26.3738C8.56094 20.3458 12.1666 15.0329 17.1478 11.2452C22.129 7.45745 28.2123 5.4029 34.47 5.39485ZM49.4156 23.6192C47.7329 26.0231 45.4965 27.9869 42.8953 29.3449C40.2941 30.7028 37.4044 31.415 34.47 31.4214H16.438C16.9591 27.8029 18.5571 24.4249 21.0242 21.7271C23.4913 19.0292 26.7133 17.1362 30.2709 16.2945C33.8285 15.4528 37.5571 15.7013 40.9716 17.0077C44.3861 18.3141 47.3284 20.6178 49.4156 23.6192ZM8.44345 41.8323C7.75356 41.8313 7.0922 41.5568 6.60437 41.069C6.11654 40.5812 5.84204 39.9198 5.84104 39.2299V34.0251C5.84204 33.3352 6.11654 32.6738 6.60437 32.186C7.0922 31.6982 7.75356 31.4237 8.44345 31.4227H11.1967C11.0998 32.2868 11.0511 33.1556 11.0509 34.0251V39.2299C11.0511 40.0994 11.0998 40.9682 11.1967 41.8323H8.44345ZM16.2507 39.2299V36.6275H34.47C37.7655 36.6214 41.0229 35.9225 44.0308 34.5762C47.0387 33.2299 49.73 31.2663 51.93 28.8127C52.4358 30.5035 52.692 32.259 52.6907 34.0238V39.2286C52.6935 41.9297 52.0921 44.5973 50.9306 47.0359H42.2773L39.9866 44.7503C38.5223 46.2144 36.5364 47.0369 34.4656 47.0369C32.3949 47.0369 30.409 46.2144 28.9446 44.7503L25.2648 48.4301C27.4797 50.6449 30.4191 51.9865 33.5435 52.2087C36.6678 52.4309 39.7675 51.5187 42.2735 49.6395V52.2382H47.2017C44.6404 54.7472 41.3954 56.4442 37.8735 57.1164C34.3516 57.7886 30.7097 57.406 27.4043 56.0166C24.099 54.6273 21.2775 52.293 19.2935 49.3064C17.3095 46.3199 16.2514 42.8141 16.2519 39.2286L16.2507 39.2299Z" fill="#FF6875"/>
</svg>
