<svg width="125" height="16" viewBox="0 0 125 16" fill="none" xmlns="http://www.w3.org/2000/svg">
<path d="M69.1202 6.41296L64.8687 9.93494L66.1195 15.6589L61.9885 12.2009L57.5915 15.475L59.2903 9.81494L55.3242 6.11499L60.5047 6.07495L62.4513 0.514038L63.9545 6.15002L69.1202 6.41296Z" fill="#FFC600"/>
<path d="M41.6693 6.41296L37.4178 9.93494L38.6686 15.6589L34.5376 12.2009L30.1406 15.475L31.8394 9.81494L27.8733 6.11499L33.0538 6.07495L35.0004 0.514038L36.5036 6.15002L41.6693 6.41296Z" fill="#FFC600"/>
<path d="M14.2203 6.41296L9.96884 9.93494L11.2196 15.6589L7.08864 12.2009L2.69161 15.475L4.3904 9.81494L0.424316 6.11499L5.60478 6.07495L7.55144 0.514038L9.05463 6.15002L14.2203 6.41296Z" fill="#FFC600"/>
<path d="M96.5697 6.41296L92.3182 9.93494L93.569 15.6589L89.438 12.2009L85.041 15.475L86.7398 9.81494L82.7737 6.11499L87.9542 6.07495L89.9008 0.514038L91.404 6.15002L96.5697 6.41296Z" fill="#FFC600"/>
<path d="M124.021 6.41296L119.769 9.93494L121.02 15.6589L116.889 12.2009L112.492 15.475L114.191 9.81494L110.225 6.11499L115.405 6.07495L117.352 0.514038L118.855 6.15002L124.021 6.41296Z" fill="#C1C8CE"/>
</svg>
