<svg width="16" height="13" viewBox="0 0 16 13" fill="none" xmlns="http://www.w3.org/2000/svg">
<path d="M15.6013 2.02699C15.051 2.26711 14.469 2.42675 13.8733 2.50099C14.5014 2.12852 14.971 1.53859 15.1933 0.842986C14.6059 1.19135 13.9633 1.43688 13.2933 1.56899C12.8821 1.12895 12.348 0.822843 11.7605 0.690509C11.1729 0.558175 10.5592 0.605735 9.99905 0.827003C9.43892 1.04827 8.95836 1.433 8.61989 1.93113C8.28141 2.42927 8.1007 3.01774 8.10126 3.61999C8.09907 3.84988 8.12255 4.0793 8.17126 4.30398C6.97788 4.24539 5.81031 3.93561 4.74486 3.39487C3.67941 2.85413 2.74007 2.09462 1.98826 1.16599C1.60216 1.82589 1.48257 2.6083 1.65393 3.3534C1.82529 4.0985 2.27467 4.75006 2.91026 5.17499C2.43555 5.16239 1.97082 5.03583 1.55526 4.80599V4.83899C1.5559 5.53126 1.79484 6.2022 2.2319 6.73906C2.66896 7.27592 3.27751 7.64596 3.95526 7.78699C3.69853 7.85508 3.43387 7.88871 3.16826 7.88698C2.97765 7.89045 2.78721 7.87335 2.60026 7.83599C2.79386 8.43095 3.16701 8.95133 3.6684 9.32558C4.1698 9.69983 4.77481 9.90958 5.40026 9.92599C4.33966 10.7547 3.03222 11.2046 1.68626 11.204C1.4463 11.2057 1.20647 11.192 0.968262 11.163C2.33943 12.0465 3.93712 12.514 5.56826 12.509C6.69151 12.5168 7.80512 12.3014 8.8444 11.8752C9.88369 11.4491 10.8279 10.8206 11.6223 10.0265C12.4167 9.23227 13.0453 8.28817 13.4717 7.24898C13.8982 6.20979 14.1138 5.09623 14.1063 3.97299C14.1063 3.83999 14.1063 3.71199 14.0953 3.58499C14.6879 3.16163 15.1983 2.63364 15.6013 2.02699Z" fill="#03A9F4"/>
</svg>
