<svg width="21" height="21" viewBox="0 0 21 21" fill="none" xmlns="http://www.w3.org/2000/svg">
<path fill-rule="evenodd" clip-rule="evenodd" d="M20.2882 17.1786C19.8048 15.8903 19.0636 14.7143 18.11 13.7228C17.1564 12.7313 16.0105 11.9451 14.7426 11.4124C15.4321 10.8457 15.9889 10.1344 16.3737 9.32878C16.7585 8.52315 16.9619 7.6428 16.9696 6.7499C16.9447 5.18505 16.3412 3.68497 15.2756 2.53943C14.2101 1.39389 12.7582 0.684164 11.2004 0.547397C10.6902 0.48412 10.1742 0.48412 9.66409 0.547397C8.10715 0.685332 6.65642 1.39557 5.59194 2.54099C4.52745 3.68642 3.92464 5.18583 3.89985 6.7499C3.90726 7.64285 4.11057 8.52327 4.49539 9.32893C4.88021 10.1346 5.43717 10.8459 6.12687 11.4124C4.85868 11.9449 3.71252 12.731 2.7587 13.7225C1.80488 14.714 1.06348 15.8901 0.579971 17.1786C0.443583 17.5554 0.403094 17.9602 0.46219 18.3565C0.521285 18.7528 0.678098 19.1281 0.91845 19.4486C1.16786 19.7778 1.49056 20.0442 1.86089 20.2267C2.23123 20.4092 2.639 20.5027 3.05178 20.4999H17.8264C18.2388 20.5026 18.6462 20.4091 19.0161 20.2266C19.386 20.0441 19.7083 19.7777 19.9572 19.4486C20.197 19.1278 20.3528 18.7521 20.4106 18.3557C20.4684 17.9593 20.4263 17.5546 20.2882 17.1786ZM6.51406 6.7499C6.53133 5.8021 6.90146 4.89487 7.55203 4.20588C8.20259 3.51688 9.08671 3.09573 10.0313 3.02489C10.3005 2.99155 10.5727 2.99155 10.8419 3.02489C11.5523 3.13389 12.2166 3.44447 12.756 3.91978C13.2954 4.39508 13.6873 5.01519 13.8852 5.70662C14.0832 6.39804 14.0789 7.13176 13.8729 7.82083C13.6669 8.5099 13.2678 9.12541 12.7229 9.5944C12.1781 10.0634 11.5102 10.3662 10.7986 10.4669C10.087 10.5676 9.36147 10.462 8.708 10.1626C8.05453 9.86326 7.50056 9.38266 7.1117 8.77779C6.72285 8.17291 6.51544 7.46914 6.51406 6.7499ZM3.04927 17.9999C3.6412 16.5237 4.66114 15.2587 5.97772 14.3677C7.2943 13.4767 8.84727 13.0006 10.4366 13.0006C12.0259 13.0006 13.5789 13.4767 14.8955 14.3677C16.212 15.2587 17.232 16.5237 17.8239 17.9999H3.05178H3.04927Z" fill="#22262A"/>
</svg>
